<!DOCTYPE svg>
<svg width="250" height="250" xmlns="http://www.w3.org/2000/svg">
  <!-- <path id="G"
d="M 0 140 L 45 140 M 15 140 L 45 170 L 80 150 L 80 90 L 45 70 L 15 90"
fill="none"
stroke="black"
stroke-width="20">
</path> -->
  <path id="left-Y-leaf"
    d="M 125 250 m 0 -28 l -7 -7 c -13 5 -14 6 -25 -15 c 11 -7 15 -3 25 15"
    stroke="black"
    stroke-width="3">
    <animate
      attributeName="d"
      begin="0s"
      dur="8s"
      from="M 125 250 m 0 -28 l -7 -7 c -13 5 -14 6 -25 -15 c 11 -7 15 -3 25 15"
      to="M 125 250 m -10 -133 l -7 -7 c -13 5 -14 6 -25 -15 c 11 -7 15 -3 25 15"
      fill="freeze" />
    <animate
      attributeName="stroke-width"
      begin="0s"
      dur="8s"
      from="3"
      to="7"
      fill="freeze" />
    <animate
      attributeName="d"
      begin="8s"
      dur="5s"
      from="M 125 250 m -10 -133 l -7 -7 c -13 5 -14 6 -25 -15 c 11 -7 15 -3 25 15"
      to="M 125 250 m -3 -133 l -7 -7 c -2 2 -2 2 -55 -55 c 2 -2 2 -2 55 55"
      fill="freeze" />
    <animate
      attributeName="stroke-width"
      begin="8s"
      dur="5s"
      from="7"
      to="20"
      fill="freeze" />
  </path>
  <path id="right-Y-leaf"
    d="M 125 250 m 0 -28 l 7 -7 c 15 5 15 5 25 -15 c -15 -5 -15 -5 -25 15"
    stroke="black"
    stroke-width="3">
    <animate
      attributeName="d"
      begin="0s"
      dur="8s"
      from="M 125 250 m 0 -28 l 7 -7 c 15 5 15 5 25 -15 c -15 -5 -15 -5 -25 15"
      to="M 125 250 m 10 -133 l 7 -7 c 15 5 15 5 25 -15 c -15 -5 -15 -5 -25 15"
      fill="freeze" />
    <animate
      attributeName="stroke-width"
      begin="0s"
      dur="8s"
      from="3"
      to="7"
      fill="freeze" />
    <animate
      attributeName="d"
      begin="8s"
      dur="5s"
      from="M 125 250 m 10 -133 l 7 -7 c 15 5 15 5 25 -15 c -15 -5 -15 -5 -25 15"
      to="M 125 250 m 3 -133 l 7 -7 c 2 2 2 2 55 -55 c -2 -2 -2 -2 -55 55"
      fill="freeze" />
    <animate
      attributeName="stroke-width"
      begin="8s"
      dur="5s"
      from="7"
      to="20"
      fill="freeze" />
  </path>
  <path id="Y-line"
    d="M 125 250 l 0 -30"
    fill="none"
    stroke="black"
    stroke-width="5">
    <animate
      attributeName="d"
      begin="0s"
      dur="8s"
      from="M 125 250 l 0 -30"
      to="M125 250 l 0 -140"
      fill="freeze" />
    <animate
      attributeName="stroke-width"
      begin="0s"
      dur="8s"
      from="5"
      to="25"
      fill="freeze" />
  </path>
  <!-- <path id="K"
d="M 180 180 L 180 70 M 180 120 L 230 80 M 180 115 L 240 170"
fill="none"
stroke="black"
stroke-width="20">
</path> -->
</svg>
